# xmcd
#
# Track frame offsets: 
#        150
#        14275
#        25585
#        36750
#        47825
#        60980
#        73435
#        85925
#        99538
#        110940
#        122800
#        133673
#        147070
#        156933
#        167920
#        178960
#        189865
#        201190
#        211165
#        221385
#        232060
#        244780
#        257435
#        270520
#        280375
#        294020
#
# Disc length: 4095 seconds
#
# Revision: 6
# Processed by: cddbd v1.5.2PL0 Copyright (c) Steve Scherf et al.
# Submitted via: ExactAudioCopy v1.1
#
DISCID=800ffd1a
DTITLE=Various Artist - Legends Of Jump Blues - Volume One (Specialty
DTITLE=)
DYEAR=1994
DGENRE=R&B
TTITLE0=Joe Liggins and His Honeydrippers - The Honeydripper (mono)
TTITLE1=Roy Milton and His Solid Senders - Oh, Babe! (mono)
TTITLE2=Joe Lutcher - Blues For Sale (mono)
TTITLE3=King Perry and His Pied Pipers - Duck's Yas Yas Yas (mono)
TTITLE4=Jimmy Liggins and His Drops Of Joy - I Can't Stop It (mono)
TTITLE5=Roy Milton and His Solid Senders - Rainy Day Confession Blues (m
TTITLE5=ono)
TTITLE6=Nelson Alexander Trio - Nelson Alexander Trio (mono)
TTITLE7=Joe Liggins and His Honeydrippers - Well, Well Baby (mono)
TTITLE8=Buddy Banks - Happy Home Blues (mono)
TTITLE9=Big Jim Wynn - Muffle Joe Shuffle (mono)
TTITLE10=King Perry and His Pied Pipers - I Ain't Got A Dime To My Name 
TTITLE10=(mono)
TTITLE11=Jimmy Liggins and His Drops Of Joy - Saturday Night Boogie Woog
TTITLE11=ie Man (mono)
TTITLE12=Jesse Thomas - Jack Of Diamonds (mono)
TTITLE13=Percy Mayfield - I Dare You, Baby (mono)
TTITLE14=Herman Manzy - I'm Your Rockin' Man (mono)
TTITLE15=Joe Liggins and His Honeydrippers - One Sweet Letter (mono)
TTITLE16=King Perry and His Pied Pipers - Natural Born Lover (mono)
TTITLE17=Lester Williams - I Can't Lose With The Stuff I Use (mono)
TTITLE18=Duke Henderson - Country Girl (mono)
TTITLE19=Roy Milton and His Solid Senders - The Hucklebuck (mono)
TTITLE20=Jimmy Crawford with Frank Motley's Crew - Heavy Weight Baby (
TTITLE20=mono)
TTITLE21=Joe Lutcher - The Traffic Song (mono)
TTITLE22=King Perry and His Pied Pipers - I Wonder Who's Boogin' My Woog
TTITLE22=ie (mono)
TTITLE23=Percy Mayfield - The Hunt Is On (mono)
TTITLE24=Joe Liggins and His Honeydrippers - Pink Champagne (mono)
TTITLE25=Jimmy Liggins and His Drops Of Joy - That Song Is Gone (mono)
EXTD=
EXTT0=
EXTT1=
EXTT2=
EXTT3=
EXTT4=
EXTT5=
EXTT6=
EXTT7=
EXTT8=
EXTT9=
EXTT10=
EXTT11=
EXTT12=
EXTT13=
EXTT14=
EXTT15=
EXTT16=
EXTT17=
EXTT18=
EXTT19=
EXTT20=
EXTT21=
EXTT22=
EXTT23=
EXTT24=
EXTT25=
PLAYORDER=
